<svg width="214" height="30" viewBox="0 0 214 30" fill="none" xmlns="http://www.w3.org/2000/svg">
<path d="M51.98 19.52H46.74L45.9 22H42.32L47.4 7.96H51.36L56.44 22H52.82L51.98 19.52ZM51.1 16.88L49.36 11.74L47.64 16.88H51.1ZM57.3061 16.42C57.3061 15.26 57.5394 14.2467 58.0061 13.38C58.4861 12.5133 59.1461 11.8467 59.9861 11.38C60.8394 10.9133 61.8128 10.68 62.9061 10.68C64.3061 10.68 65.4728 11.0467 66.4061 11.78C67.3528 12.5133 67.9728 13.5467 68.2661 14.88H64.6261C64.3194 14.0267 63.7261 13.6 62.8461 13.6C62.2194 13.6 61.7194 13.8467 61.3461 14.34C60.9728 14.82 60.7861 15.5133 60.7861 16.42C60.7861 17.3267 60.9728 18.0267 61.3461 18.52C61.7194 19 62.2194 19.24 62.8461 19.24C63.7261 19.24 64.3194 18.8133 64.6261 17.96H68.2661C67.9728 19.2667 67.3528 20.2933 66.4061 21.04C65.4594 21.7867 64.2928 22.16 62.9061 22.16C61.8128 22.16 60.8394 21.9267 59.9861 21.46C59.1461 20.9933 58.4861 20.3267 58.0061 19.46C57.5394 18.5933 57.3061 17.58 57.3061 16.42ZM69.4155 16.4C69.4155 15.2533 69.6288 14.2467 70.0555 13.38C70.4955 12.5133 71.0888 11.8467 71.8355 11.38C72.5821 10.9133 73.4155 10.68 74.3355 10.68C75.1221 10.68 75.8088 10.84 76.3955 11.16C76.9955 11.48 77.4555 11.9 77.7755 12.42V10.84H81.1955V22H77.7755V20.42C77.4421 20.94 76.9755 21.36 76.3755 21.68C75.7888 22 75.1021 22.16 74.3155 22.16C73.4088 22.16 72.5821 21.9267 71.8355 21.46C71.0888 20.98 70.4955 20.3067 70.0555 19.44C69.6288 18.56 69.4155 17.5467 69.4155 16.4ZM77.7755 16.42C77.7755 15.5667 77.5355 14.8933 77.0555 14.4C76.5888 13.9067 76.0155 13.66 75.3355 13.66C74.6555 13.66 74.0755 13.9067 73.5955 14.4C73.1288 14.88 72.8955 15.5467 72.8955 16.4C72.8955 17.2533 73.1288 17.9333 73.5955 18.44C74.0755 18.9333 74.6555 19.18 75.3355 19.18C76.0155 19.18 76.5888 18.9333 77.0555 18.44C77.5355 17.9467 77.7755 17.2733 77.7755 16.42ZM82.9897 16.4C82.9897 15.2533 83.203 14.2467 83.6297 13.38C84.0697 12.5133 84.663 11.8467 85.4097 11.38C86.1564 10.9133 86.9897 10.68 87.9097 10.68C88.643 10.68 89.3097 10.8333 89.9097 11.14C90.523 11.4467 91.003 11.86 91.3497 12.38V7.2H94.7697V22H91.3497V20.4C91.0297 20.9333 90.5697 21.36 89.9697 21.68C89.383 22 88.6964 22.16 87.9097 22.16C86.9897 22.16 86.1564 21.9267 85.4097 21.46C84.663 20.98 84.0697 20.3067 83.6297 19.44C83.203 18.56 82.9897 17.5467 82.9897 16.4ZM91.3497 16.42C91.3497 15.5667 91.1097 14.8933 90.6297 14.4C90.163 13.9067 89.5897 13.66 88.9097 13.66C88.2297 13.66 87.6497 13.9067 87.1697 14.4C86.703 14.88 86.4697 15.5467 86.4697 16.4C86.4697 17.2533 86.703 17.9333 87.1697 18.44C87.6497 18.9333 88.2297 19.18 88.9097 19.18C89.5897 19.18 90.163 18.9333 90.6297 18.44C91.1097 17.9467 91.3497 17.2733 91.3497 16.42ZM107.764 16.24C107.764 16.56 107.744 16.8933 107.704 17.24H99.9639C100.017 17.9333 100.237 18.4667 100.624 18.84C101.024 19.2 101.511 19.38 102.084 19.38C102.937 19.38 103.531 19.02 103.864 18.3H107.504C107.317 19.0333 106.977 19.6933 106.484 20.28C106.004 20.8667 105.397 21.3267 104.664 21.66C103.931 21.9933 103.111 22.16 102.204 22.16C101.111 22.16 100.137 21.9267 99.2839 21.46C98.4306 20.9933 97.7639 20.3267 97.2839 19.46C96.8039 18.5933 96.5639 17.58 96.5639 16.42C96.5639 15.26 96.7972 14.2467 97.2639 13.38C97.7439 12.5133 98.4106 11.8467 99.2639 11.38C100.117 10.9133 101.097 10.68 102.204 10.68C103.284 10.68 104.244 10.9067 105.084 11.36C105.924 11.8133 106.577 12.46 107.044 13.3C107.524 14.14 107.764 15.12 107.764 16.24ZM104.264 15.34C104.264 14.7533 104.064 14.2867 103.664 13.94C103.264 13.5933 102.764 13.42 102.164 13.42C101.591 13.42 101.104 13.5867 100.704 13.92C100.317 14.2533 100.077 14.7267 99.9839 15.34H104.264ZM123.808 10.72C125.195 10.72 126.295 11.14 127.108 11.98C127.935 12.82 128.348 13.9867 128.348 15.48V22H124.948V15.94C124.948 15.22 124.755 14.6667 124.368 14.28C123.995 13.88 123.475 13.68 122.808 13.68C122.141 13.68 121.615 13.88 121.228 14.28C120.855 14.6667 120.668 15.22 120.668 15.94V22H117.268V15.94C117.268 15.22 117.075 14.6667 116.688 14.28C116.315 13.88 115.795 13.68 115.128 13.68C114.461 13.68 113.935 13.88 113.548 14.28C113.175 14.6667 112.988 15.22 112.988 15.94V22H109.568V10.84H112.988V12.24C113.335 11.7733 113.788 11.4067 114.348 11.14C114.908 10.86 115.541 10.72 116.248 10.72C117.088 10.72 117.835 10.9 118.488 11.26C119.155 11.62 119.675 12.1333 120.048 12.8C120.435 12.1867 120.961 11.6867 121.628 11.3C122.295 10.9133 123.021 10.72 123.808 10.72ZM132.46 9.68C131.86 9.68 131.367 9.50667 130.98 9.16C130.607 8.8 130.42 8.36 130.42 7.84C130.42 7.30667 130.607 6.86667 130.98 6.52C131.367 6.16 131.86 5.98 132.46 5.98C133.047 5.98 133.527 6.16 133.9 6.52C134.287 6.86667 134.48 7.30667 134.48 7.84C134.48 8.36 134.287 8.8 133.9 9.16C133.527 9.50667 133.047 9.68 132.46 9.68ZM134.16 10.84V22H130.74V10.84H134.16ZM135.958 16.4C135.958 15.2533 136.172 14.2467 136.598 13.38C137.038 12.5133 137.632 11.8467 138.378 11.38C139.125 10.9133 139.958 10.68 140.878 10.68C141.665 10.68 142.352 10.84 142.938 11.16C143.538 11.48 143.998 11.9 144.318 12.42V10.84H147.738V22H144.318V20.42C143.985 20.94 143.518 21.36 142.918 21.68C142.332 22 141.645 22.16 140.858 22.16C139.952 22.16 139.125 21.9267 138.378 21.46C137.632 20.98 137.038 20.3067 136.598 19.44C136.172 18.56 135.958 17.5467 135.958 16.4ZM144.318 16.42C144.318 15.5667 144.078 14.8933 143.598 14.4C143.132 13.9067 142.558 13.66 141.878 13.66C141.198 13.66 140.618 13.9067 140.138 14.4C139.672 14.88 139.438 15.5467 139.438 16.4C139.438 17.2533 139.672 17.9333 140.138 18.44C140.618 18.9333 141.198 19.18 141.878 19.18C142.558 19.18 143.132 18.9333 143.598 18.44C144.078 17.9467 144.318 17.2733 144.318 16.42Z" fill="white"/>
<path d="M159.093 12.54C158.866 12.1667 158.553 11.88 158.153 11.68C157.766 11.48 157.306 11.38 156.773 11.38C155.786 11.38 155.006 11.7 154.433 12.34C153.873 12.98 153.593 13.84 153.593 14.92C153.593 16.1333 153.893 17.06 154.493 17.7C155.106 18.3267 155.993 18.64 157.153 18.64C158.526 18.64 159.506 18.02 160.093 16.78H156.153V13.96H163.473V17.76C163.166 18.5067 162.713 19.2067 162.113 19.86C161.526 20.5133 160.779 21.0533 159.873 21.48C158.966 21.8933 157.933 22.1 156.773 22.1C155.359 22.1 154.106 21.8 153.013 21.2C151.933 20.5867 151.093 19.74 150.493 18.66C149.906 17.5667 149.613 16.32 149.613 14.92C149.613 13.5333 149.906 12.3 150.493 11.22C151.093 10.1267 151.933 9.28 153.013 8.68C154.093 8.06667 155.339 7.76 156.753 7.76C158.526 7.76 159.993 8.18667 161.153 9.04C162.313 9.89333 163.033 11.06 163.313 12.54H159.093ZM175.949 16.26C175.949 16.5667 175.929 16.8733 175.889 17.18H168.469C168.509 17.7933 168.676 18.2533 168.969 18.56C169.276 18.8533 169.663 19 170.129 19C170.783 19 171.249 18.7067 171.529 18.12H175.709C175.536 18.8933 175.196 19.5867 174.689 20.2C174.196 20.8 173.569 21.2733 172.809 21.62C172.049 21.9667 171.209 22.14 170.289 22.14C169.183 22.14 168.196 21.9067 167.329 21.44C166.476 20.9733 165.803 20.3067 165.309 19.44C164.829 18.5733 164.589 17.5533 164.589 16.38C164.589 15.2067 164.829 14.1933 165.309 13.34C165.789 12.4733 166.456 11.8067 167.309 11.34C168.176 10.8733 169.169 10.64 170.289 10.64C171.396 10.64 172.376 10.8667 173.229 11.32C174.083 11.7733 174.749 12.4267 175.229 13.28C175.709 14.12 175.949 15.1133 175.949 16.26ZM171.949 15.28C171.949 14.8 171.789 14.4267 171.469 14.16C171.149 13.88 170.749 13.74 170.269 13.74C169.789 13.74 169.396 13.8733 169.089 14.14C168.783 14.3933 168.583 14.7733 168.489 15.28H171.949ZM188.274 16.26C188.274 16.5667 188.254 16.8733 188.214 17.18H180.794C180.834 17.7933 181 18.2533 181.294 18.56C181.6 18.8533 181.987 19 182.454 19C183.107 19 183.574 18.7067 183.854 18.12H188.034C187.86 18.8933 187.52 19.5867 187.014 20.2C186.52 20.8 185.894 21.2733 185.134 21.62C184.374 21.9667 183.534 22.14 182.614 22.14C181.507 22.14 180.52 21.9067 179.654 21.44C178.8 20.9733 178.127 20.3067 177.634 19.44C177.154 18.5733 176.914 17.5533 176.914 16.38C176.914 15.2067 177.154 14.1933 177.634 13.34C178.114 12.4733 178.78 11.8067 179.634 11.34C180.5 10.8733 181.494 10.64 182.614 10.64C183.72 10.64 184.7 10.8667 185.554 11.32C186.407 11.7733 187.074 12.4267 187.554 13.28C188.034 14.12 188.274 15.1133 188.274 16.26ZM184.274 15.28C184.274 14.8 184.114 14.4267 183.794 14.16C183.474 13.88 183.074 13.74 182.594 13.74C182.114 13.74 181.72 13.8733 181.414 14.14C181.107 14.3933 180.907 14.7733 180.814 15.28H184.274ZM196.898 22L193.798 17.4V22H189.878V7.2H193.798V15.18L196.898 10.78H201.598L197.178 16.42L201.678 22H196.898ZM207.607 22.14C206.594 22.14 205.687 21.9733 204.887 21.64C204.1 21.2933 203.474 20.8267 203.007 20.24C202.554 19.64 202.3 18.9667 202.247 18.22H206.047C206.1 18.58 206.267 18.86 206.547 19.06C206.827 19.26 207.174 19.36 207.587 19.36C207.907 19.36 208.16 19.2933 208.347 19.16C208.534 19.0267 208.627 18.8533 208.627 18.64C208.627 18.36 208.474 18.1533 208.167 18.02C207.86 17.8867 207.354 17.74 206.647 17.58C205.847 17.42 205.18 17.24 204.647 17.04C204.114 16.84 203.647 16.5133 203.247 16.06C202.86 15.6067 202.667 14.9933 202.667 14.22C202.667 13.5533 202.847 12.9533 203.207 12.42C203.567 11.8733 204.094 11.44 204.787 11.12C205.494 10.8 206.34 10.64 207.327 10.64C208.794 10.64 209.947 11 210.787 11.72C211.627 12.44 212.114 13.3867 212.247 14.56H208.707C208.64 14.2 208.48 13.9267 208.227 13.74C207.987 13.54 207.66 13.44 207.247 13.44C206.927 13.44 206.68 13.5 206.507 13.62C206.347 13.74 206.267 13.9067 206.267 14.12C206.267 14.3867 206.42 14.5933 206.727 14.74C207.034 14.8733 207.527 15.0133 208.207 15.16C209.02 15.3333 209.694 15.5267 210.227 15.74C210.774 15.9533 211.247 16.3 211.647 16.78C212.06 17.2467 212.267 17.8867 212.267 18.7C212.267 19.3533 212.074 19.94 211.687 20.46C211.314 20.98 210.774 21.3933 210.067 21.7C209.374 21.9933 208.554 22.14 207.607 22.14Z" fill="#FF4747"/>
<path fill-rule="evenodd" clip-rule="evenodd" d="M18.9638 3.06743C18.7316 2.97752 18.4741 2.97752 18.2418 3.06743L0.639005 9.88143C-0.213003 10.2112 -0.213001 11.4168 0.639007 11.7466L18.2418 18.5606C18.4741 18.6505 18.7316 18.6505 18.9638 18.5606L36.5667 11.7466C37.4187 11.4168 37.4187 10.2112 36.5666 9.88143L18.9638 3.06743ZM7.43057 24.2244V16.6745L18.2348 20.9512C18.4712 21.0448 18.7344 21.0448 18.9709 20.9512L30.4323 16.4144V24.2244C30.4323 25.0604 29.9123 25.8082 29.1287 26.0993L19.6278 29.6282C19.1786 29.795 18.6843 29.795 18.2351 29.6282L8.7342 26.0993C7.95053 25.8082 7.43057 25.0604 7.43057 24.2244Z" fill="#FF4747"/>
</svg>
