<svg width="131" height="95" viewBox="0 0 131 95" fill="none" xmlns="http://www.w3.org/2000/svg">
<path fill-rule="evenodd" clip-rule="evenodd" d="M66.6849 0.23726C65.8684 -0.0790868 64.9629 -0.0790868 64.146 0.23726L2.24702 24.2124C-0.749011 25.3729 -0.749004 29.6145 2.24702 30.775L64.146 54.7503C64.9629 55.0666 65.8684 55.0666 66.6849 54.7503L128.584 30.775C131.58 29.6145 131.58 25.3729 128.584 24.2124L66.6849 0.23726ZM26.1291 74.6784V48.114L64.1214 63.1616C64.9527 63.491 65.8782 63.491 66.7099 63.1616L107.013 47.1988V74.6784C107.013 77.6199 105.185 80.2511 102.429 81.2753L69.0198 93.6918C67.4402 94.2787 65.7021 94.2787 64.1225 93.6918L30.7132 81.2753C27.9575 80.2511 26.1291 77.6199 26.1291 74.6784Z" fill="#FF4747"/>
</svg>
